# Blender v2.64 (sub 0) OBJ File: 'CraneModel.blend'
# www.blender.org
mtllib hook.mtl
o Hook_Cube.000
v 0.214420 -0.916057 -0.353552
v 0.214420 -0.916057 0.375531
v -0.205654 -0.916057 0.375531
v -0.205654 -0.916057 -0.353552
v 0.339510 0.048296 -0.511908
v 0.339509 0.048296 0.533886
v -0.330743 0.048296 0.533886
v -0.330743 0.048296 -0.511908
vt 0.249449 0.867158
vt 0.196589 0.867158
vt 0.196589 0.771802
vt 0.249449 0.771802
vt 0.286642 0.875948
vt 0.268257 0.763990
vt 0.389671 0.763990
vt 0.371286 0.875948
vt 0.198110 0.870486
vt 0.206660 0.767286
vt 0.235370 0.767286
vt 0.243920 0.870486
vn 0.000000 -1.000000 0.000000
vn 0.000000 1.000000 0.000000
vn 0.991692 -0.128636 0.000000
vn 0.000000 -0.162039 0.986784
vn -0.991692 -0.128636 -0.000000
vn 0.000000 -0.162039 -0.986784
usemtl Material.015
s off
f 1/1/1 2/2/1 3/3/1
f 1/1/1 3/3/1 4/4/1
f 5/1/2 8/2/2 7/3/2
f 5/1/2 7/3/2 6/4/2
f 1/5/3 5/6/3 6/7/3
f 1/5/3 6/7/3 2/8/3
f 2/9/4 6/10/4 7/11/4
f 2/9/4 7/11/4 3/12/4
f 3/8/5 7/7/5 8/6/5
f 3/8/5 8/6/5 4/5/5
f 5/9/6 1/10/6 4/11/6
f 5/9/6 4/11/6 8/12/6
o Cube.003_Cube.002
v 0.097902 -1.201750 -0.028708
v 0.132132 -1.184809 0.080484
v 0.038613 -1.172407 0.160416
v -0.089136 -1.176947 0.131163
v -0.123366 -1.193889 0.021971
v -0.029847 -1.206283 -0.057961
v 0.097902 -0.897912 -0.075844
v 0.132132 -0.880971 0.033348
v 0.038613 -0.868569 0.113280
v -0.089135 -0.873109 0.084020
v -0.123366 -0.890050 -0.025172
v -0.029847 -0.902452 -0.105097
v 0.004383 -0.885511 0.004088
v -0.034041 -1.445539 0.073293
v -0.139018 -1.408736 0.156305
v -0.100594 -1.358465 0.269697
v 0.042807 -1.344991 0.300072
v 0.147784 -1.381794 0.217074
v 0.109360 -1.432072 0.103681
v 0.128522 -1.663245 0.073335
v 0.173960 -1.689826 0.217586
v 0.049821 -1.709280 0.323179
v -0.119755 -1.702159 0.284528
v -0.165193 -1.675584 0.140284
v -0.041055 -1.656131 0.034684
v -0.045886 -1.704221 -0.079103
v -0.183226 -1.822043 -0.063906
v -0.132956 -1.982980 -0.043144
v 0.054653 -2.026101 -0.037580
v 0.191992 -1.908286 -0.052778
v 0.141722 -1.747350 -0.073539
v 0.106754 -1.711571 -0.263812
v 0.144224 -1.791980 -0.354166
v 0.041853 -1.850839 -0.420319
v -0.097987 -1.829296 -0.396105
v -0.135457 -1.748893 -0.305743
v -0.033087 -1.690027 -0.239597
v 0.004383 -1.424390 -0.519774
v -0.010890 -1.484253 -0.438520
v -0.052617 -1.502447 -0.469690
v -0.037344 -1.527305 -0.512265
v 0.019656 -1.533963 -0.523670
v 0.061383 -1.515769 -0.492500
v 0.046110 -1.490910 -0.449932
vt 0.427447 0.780634
vt 0.422811 0.780673
vt 0.440114 0.780527
vt 0.410144 0.780779
vt 0.414780 0.780740
vt 0.432083 0.780595
vt 0.444750 0.780488
vt 0.436678 0.723430
vt 0.419579 0.726083
vt 0.407062 0.728025
vt 0.411644 0.727314
vt 0.428743 0.724661
vt 0.441260 0.722719
vt 0.406730 0.685314
vt 0.411489 0.683204
vt 0.398490 0.688968
vt 0.380733 0.696841
vt 0.375975 0.698950
vt 0.388974 0.693187
vt 0.372509 0.645461
vt 0.395099 0.649622
vt 0.355973 0.642414
vt 0.362026 0.643530
vt 0.384615 0.647691
vt 0.401151 0.650738
vt 0.418100 0.636452
vt 0.418972 0.643206
vt 0.416591 0.624756
vt 0.413340 0.599553
vt 0.412468 0.592800
vt 0.414849 0.611249
vt 0.462047 0.629464
vt 0.447896 0.642056
vt 0.472405 0.620246
vt 0.468614 0.623619
vt 0.454463 0.636211
vt 0.444105 0.645429
vt 0.477043 0.676611
vt 0.475256 0.677654
vt 0.480137 0.674805
vt 0.486805 0.670912
vt 0.488591 0.669869
vt 0.483710 0.672718
vt 0.487980 0.687028
vn -0.000001 0.988177 -0.153318
vn 0.000002 0.988175 -0.153328
vn -0.000008 0.988176 -0.153326
vn 0.955217 -0.045363 -0.292410
vn 0.654186 0.115946 0.747394
vn -0.225772 0.149353 0.962663
vn -0.955217 0.045369 0.292409
vn -0.654167 -0.115958 -0.747408
vn 0.225744 -0.149345 -0.962671
vn -0.227699 -0.307535 -0.923856
vn 0.649678 -0.240089 -0.721274
vn 0.732261 -0.081393 -0.676107
vn -0.263466 -0.140446 -0.954375
vn -0.939909 -0.100620 -0.326182
vn -0.983032 0.033998 -0.180242
vn -0.715323 0.295541 0.633198
vn -0.630482 0.292184 0.719077
vn 0.254830 0.405316 0.877926
vn 0.219398 0.355419 0.908567
vn 0.978820 0.098727 0.179205
vn 0.925230 0.173345 0.337443
vn 0.915159 -0.153905 0.372509
vn 0.744102 0.424055 -0.516190
vn 0.216132 -0.355327 0.909391
vn -0.620350 -0.294412 0.726951
vn -0.990753 0.104648 -0.086215
vn -0.264870 0.610218 -0.746635
vn 0.723533 0.673086 -0.152959
vn -0.251503 0.950407 -0.182867
vn -0.986938 0.148595 -0.061739
vn -0.626118 -0.772607 0.104984
vn 0.217505 -0.966430 0.136662
vn 0.921934 -0.385540 0.036653
vn 0.909696 -0.183813 -0.372295
vn 0.722495 0.656606 0.216376
vn 0.217933 -0.642018 -0.735038
vn -0.622578 -0.490310 -0.609882
vn -0.967711 0.241920 -0.070345
vn -0.260384 0.884945 0.386059
vn 0.647450 0.645436 0.405164
vn -0.232002 0.743339 0.627369
vn -0.893551 0.448866 0.007996
vn -0.614765 -0.014893 -0.788537
vn 0.216468 -0.131962 -0.967315
vn 0.876797 0.200751 -0.436872
vn 0.000000 0.901212 -0.433332
usemtl Material.015_NONE
s off
f 21/13/7 16/14/7 15/15/7
f 21/13/7 17/16/7 16/14/7
f 21/13/7 18/17/7 17/16/7
f 21/13/7 19/18/7 18/17/7
f 21/13/8 20/19/8 19/18/8
f 21/13/9 15/15/9 20/19/9
f 9/20/10 15/15/10 16/14/10
f 9/20/10 16/14/10 10/21/10
f 10/21/11 16/14/11 17/16/11
f 10/21/11 17/16/11 11/22/11
f 11/22/12 17/16/12 18/17/12
f 11/22/12 18/17/12 12/23/12
f 12/23/13 18/17/13 19/18/13
f 12/23/13 19/18/13 13/24/13
f 13/24/14 19/18/14 20/19/14
f 13/24/14 20/19/14 14/25/14
f 15/15/15 9/20/15 14/25/15
f 15/15/15 14/25/15 20/19/15
s 1
f 14/25/16 9/20/17 27/26/18
f 14/25/16 27/26/18 22/27/19
f 13/24/20 14/25/16 22/27/19
f 13/24/20 22/27/19 23/28/21
f 12/23/22 13/24/20 23/28/21
f 12/23/22 23/28/21 24/29/23
f 11/22/24 12/23/22 24/29/23
f 11/22/24 24/29/23 25/30/25
f 10/21/26 11/22/24 25/30/25
f 10/21/26 25/30/25 26/31/27
f 9/20/17 10/21/26 26/31/27
f 9/20/17 26/31/27 27/26/18
f 27/26/18 26/31/27 29/32/28
f 27/26/18 29/32/28 28/33/29
f 26/31/27 25/30/25 30/34/30
f 26/31/27 30/34/30 29/32/28
f 25/30/25 24/29/23 31/35/31
f 25/30/25 31/35/31 30/34/30
f 24/29/23 23/28/21 32/36/32
f 24/29/23 32/36/32 31/35/31
f 23/28/21 22/27/19 33/37/33
f 23/28/21 33/37/33 32/36/32
f 22/27/19 27/26/18 28/33/29
f 22/27/19 28/33/29 33/37/33
f 33/37/33 28/33/29 39/38/34
f 33/37/33 39/38/34 34/39/35
f 32/36/32 33/37/33 34/39/35
f 32/36/32 34/39/35 35/40/36
f 31/35/31 32/36/32 35/40/36
f 31/35/31 35/40/36 36/41/37
f 30/34/30 31/35/31 36/41/37
f 30/34/30 36/41/37 37/42/38
f 29/32/28 30/34/30 37/42/38
f 29/32/28 37/42/38 38/43/39
f 28/33/29 29/32/28 38/43/39
f 28/33/29 38/43/39 39/38/34
f 39/38/34 38/43/39 41/44/40
f 39/38/34 41/44/40 40/45/41
f 38/43/39 37/42/38 42/46/42
f 38/43/39 42/46/42 41/44/40
f 37/42/38 36/41/37 43/47/43
f 37/42/38 43/47/43 42/46/42
f 36/41/37 35/40/36 44/48/44
f 36/41/37 44/48/44 43/47/43
f 35/40/36 34/39/35 45/49/45
f 35/40/36 45/49/45 44/48/44
f 34/39/35 39/38/34 40/45/41
f 34/39/35 40/45/41 45/49/45
f 45/49/45 40/45/41 52/50/46
f 45/49/45 52/50/46 47/51/47
f 44/48/44 45/49/45 47/51/47
f 44/48/44 47/51/47 48/52/48
f 43/47/43 44/48/44 48/52/48
f 43/47/43 48/52/48 49/53/49
f 42/46/42 43/47/43 49/53/49
f 42/46/42 49/53/49 50/54/50
f 41/44/40 42/46/42 50/54/50
f 41/44/40 50/54/50 51/55/51
f 40/45/41 41/44/40 51/55/51
f 40/45/41 51/55/51 52/50/46
f 46/56/52 52/50/46 51/55/51
f 46/56/52 51/55/51 50/54/50
f 46/56/52 50/54/50 49/53/49
f 46/56/52 49/53/49 48/52/48
f 46/56/52 48/52/48 47/51/47
f 47/51/47 52/50/46 46/56/52
